# xmcd
#
# Track frame offsets:
#	150
#	15677
#	35317
#	52281
#	70990
#	86030
#	104514
#	120246
#	133891
#	149066
#	164593
#	184233
#	201197
#	219906
#	234946
#	253430
#	269162
#	282807
#
# Disc length: 3973
#
# Revision: 1
# Processed by: cddbd v1.5.2PL0 Copyright (c) Steve Scherf et al.
# Submitted via: kJams Pro (development) 1.0patch45.9
#
DISCID=220f8312
DTITLE=Various Artist - NSC 3015
DYEAR=1995
DGENRE=Country
TTITLE0=Alan Jackson - When Somebody Loves You
TTITLE1=Sara Evans - I Could Not Ask For More
TTITLE2=Tim McGraw - Grown Man Don't Cry
TTITLE3=George Strait - If You Can Do Anything Else
TTITLE4=Leann Rimes - But I Do Love You
TTITLE5=Brad Paisley - Two People Fell In Love
TTITLE6=Rascal Flatts - While You Loved Me
TTITLE7=Jamie O'Neal - When I Think About Angela
TTITLE8=Tracy Byrd and Mark Chesnutt - A Good Way To Get On My Bad Side
TTITLE9=Alan Jackson - Vocals - When Somebody Loves You
TTITLE10=Sara Evans - Vocals - I Could Not Ask For More
TTITLE11=Tim McGraw - Vocals - Grown Man Don't Cry
TTITLE12=George Strait - Vocals - If You Can Do Anything Else
TTITLE13=Leann Rimes - Vocals - But I Do Love You
TTITLE14=Brad Paisley - Vocals - Two People Fell In Love
TTITLE15=Rascal Flatts - Vocals - While You Loved Me
TTITLE16=Jamie O'Neal - Vocals - When I Think About Angela
TTITLE17=Tracy Byrd and Mark Chesnutt - Vocals - A Good Way To Get On My Bad Side
EXTD=
EXTT0=
EXTT1=
EXTT2=
EXTT3=
EXTT4=
EXTT5=
EXTT6=
EXTT7=
EXTT8=
EXTT9=
EXTT10=
EXTT11=
EXTT12=
EXTT13=
EXTT14=
EXTT15=
EXTT16=
EXTT17=
PLAYORDER=
